<?xml version="1.0" encoding="UTF-8"?>
<svg xmlns="http://www.w3.org/2000/svg" viewBox="0 0 1342 894" width="1342" height="894">
<path d="M0.25 0.25C447.42 0.25 894.58 0.25 1341.75 0.25C1341.75 298.08 1341.75 595.92 1341.75 893.75C894.58 893.75 447.42 893.75 0.25 893.75C0.25 595.92 0.25 298.08 0.25 0.25ZM665.62 105.45C622.51 106.85 581.59 116.54 542.68 135.18C510.81 150.45 481.31 174.07 458.26 200.75C402.22 265.65 375.86 348.99 387.1 434.5C405.23 572.29 533.55 683.61 672.47 682.54C711.04 682.24 748.42 673.58 783.69 658.21C813.18 645.36 840.58 626.5 863.9 604.41C894.63 575.3 920.21 539.82 935.71 500.24C947.32 470.59 954.26 439.32 955.86 407.5C960.97 306.17 909.33 207.13 825.82 150.64C809.54 139.64 791.82 131.21 773.7 123.77C740.11 109.98 701.79 104.28 665.62 105.45ZM666.67 115.47C686.37 114.64 706.2 117.3 725.52 120.84C869.29 147.16 966.93 297.14 942.74 439.45C927.11 531.44 868.99 604.26 786.7 646.2C752.68 663.55 713.56 672.29 675.5 672.96C641.7 673.56 608.73 666.94 577.11 655.43C489.1 623.4 417.56 540.07 399.31 448.36C376.05 331.41 434.44 204 540.6 148.1C580.04 127.34 622.3 117.35 666.67 115.47ZM653.94 336.5C685.37 331.48 719.9 318.05 729.82 284.4C731.54 278.58 732.32 272.56 732.42 266.5C732.55 258.95 731.64 251.45 729.36 244.24C726.56 235.44 721.51 227.04 715.11 220.39C702.25 207.02 684.43 200.8 666.54 197.79C651.38 195.24 635.83 195.6 620.5 195.86C603.5 196.15 586.5 196.64 569.5 196.65C557.17 196.66 544.83 196.55 532.5 196.41C527.86 196.36 521.47 195.06 517.68 197.5C518.1 197.91 518.13 198.66 518.61 198.99C520.78 200.47 525.77 199.85 528.3 200.33C536.23 201.85 542.3 206.58 545.5 213.97C549.24 222.62 548.87 232.28 548.87 241.5C548.87 253.83 548.86 266.17 548.86 278.5C548.88 319.5 548.86 360.5 548.79 401.5C548.77 418.21 551.3 446.24 544.74 461.27C541.99 467.58 536.99 471.87 530.45 473.87C528.27 474.54 518.89 475.01 518.2 475.81C517.45 476.68 518.19 476.48 517.64 477.5C522.73 480.28 536.13 478.58 542.5 478.49C557.17 478.29 571.83 478.42 586.5 478.43C593.99 478.44 603.27 477.39 610.31 479.5C611.72 502.15 615.89 524.28 627.24 544.27C654.91 592.97 711.02 610.83 764.25 600.62C790.82 595.53 812.53 583.24 822.95 557.48C825.15 552.05 826.33 546.3 827.27 540.53C827.53 538.95 828.37 536.22 827.69 534.72C826.92 533.04 827.62 535.25 826.5 533.68C823.61 536.68 822.33 541.14 820.43 544.93C818.15 549.48 815.26 553.7 812.42 557.9C800.83 575.03 781.91 589.49 761.43 593.73C751.84 595.71 742.2 596.04 732.5 594.78C725.1 593.82 718.29 592 711.41 589.14C655.83 566.09 642.53 494.95 646.87 441.5C648.27 424.25 651.88 405.32 660.5 390.08C663.85 394.15 666.15 399.17 668.67 403.79C673.1 411.88 677.8 420.01 682.58 427.9C703.89 463.08 730.04 493.84 774.5 495.97C788.23 496.63 803.91 495.47 816.25 488.74C819.64 486.89 825.68 484.72 826.5 480.84C823.25 479.75 813.81 484.29 809.5 485.11C799.52 487 788.28 486.23 778.71 482.73C740.89 468.89 721.1 428.03 702.2 395.31C697.36 386.94 692.1 378.78 686.73 370.75C684.67 367.67 682.16 364.96 680.84 361.5C711.47 331.64 766.36 327.44 797.66 358.85C803.27 364.48 808.47 371.46 811.65 378.78C814.06 384.32 815.17 391.64 818.5 396.4C820.19 394.58 818.66 397.52 820.01 395.39C821.13 393.62 820.09 384.97 820.02 382.5C819.68 370.16 818.46 357.79 818.5 345.44C813.67 342.14 797.29 338.49 790.7 336.7C764.31 329.5 736.21 327.62 709.65 335.24C696.27 339.08 684.71 345.73 672.5 352.04C669.42 349.09 666.56 345.98 663.23 343.29C660.23 340.88 656.72 339.09 653.94 336.5ZM582.42 331.79C582.42 289.36 582.42 246.93 582.42 204.5C602.9 200.92 637.7 199.2 657.25 206.32C668.68 210.48 679.13 217.21 686.38 227.13C703.78 250.92 701.44 290.08 680.42 310.92C661.48 329.7 633.79 332.34 608.5 332.36C600.04 332.37 590.68 333.39 582.42 331.79ZM648.97 370.5C645.99 376.1 640.43 380.92 636.66 386.2C629.99 395.54 624.32 406.01 620.38 416.81C615.69 429.68 612.68 442.89 611.21 456.5C610.53 462.74 611.08 469.32 609.5 475.33C605.63 474.96 601.97 474.67 598.33 473.2C581.69 466.48 582.25 445.58 582.33 430.5C582.44 411.17 582.33 391.83 582.37 372.5C582.39 363.01 580.8 346.01 582.95 337.5C593.52 336.77 608.14 335.87 618.2 339.37C632.4 344.33 641.27 358.48 648.97 370.5ZM420.5 732.51C420.85 724.97 408.87 723.78 403.5 724.8C392.53 726.89 387.37 739.45 390.98 749.48C397.45 767.44 424.52 762.95 423.12 742.5C418.72 741.85 411.23 740.9 407.83 743.5C408.15 744.21 407.77 744.56 408.27 745.2C408.93 746.05 417.58 745.84 419.58 746.5C416.79 763.09 394.56 759.06 393.42 743.31C392.75 734.06 401.14 725.6 410.49 727.95C415.41 729.18 415.94 732.61 420.5 732.51ZM687.44 731.5C686.94 722.19 668.23 722 665.74 731.43C662.54 743.54 679.91 742.01 684.81 748.5C685.15 755.97 679.2 759.49 672.23 756.29C669.72 755.14 668.75 752.08 666.36 751.5C665.5 752.65 665.63 751.32 665.02 752.67C663.66 755.67 669.52 759.09 671.64 759.83C677.69 761.92 685.91 760.32 688.26 753.67C692.84 740.72 674.9 741.91 669.5 735.94C668.45 729.45 674.25 725.76 680.32 728.18C683.95 729.63 683.46 733.54 687.44 731.5ZM935.77 724.44C913.1 726.12 915 761.79 938.23 760.53C961.09 759.29 959.36 722.7 935.77 724.44ZM454.5 724.77C452.36 727.58 453.14 731.77 453.18 735.5C453.25 743.51 452.5 751.74 453.5 759.69C458.42 760.43 463.51 760.26 468.5 760.16C470.03 760.12 472.93 760.59 474.28 759.79C476.02 758.75 473.58 759.89 475.1 758.5C474.73 758.16 474.77 757.46 474.33 757.2C472.44 756.07 460.28 756.97 457.01 756.5C456.86 748.84 456.91 741.16 456.95 733.5C456.95 731.72 457.84 726.28 456.25 725.12C455.44 724.53 455.41 725.15 454.5 724.77ZM520.5 724.81C515.53 725.46 515.71 729.29 513.99 733.49C510.48 742.09 506.39 750.67 503.5 759.5C504.66 759.68 505.12 760.29 506.38 759.95C508.54 759.38 509.75 752.93 510.5 750.99C516.17 750.99 521.83 750.99 527.5 750.99C529.63 755.47 528.9 759.97 534.5 759.8C529.83 748.14 525.17 736.47 520.5 724.81ZM564.5 725.18C563.69 733.14 564.32 741.47 564.29 749.5C564.28 753.11 563.58 757.34 565.5 760.21C569.35 758.7 567.95 756.52 567.98 752.5C568.04 745.74 567.22 738.4 568.5 731.81C572.5 739.44 576.5 747.07 580.5 754.7C583.68 753.71 584.12 750.97 585.56 748.06C588.14 742.83 591.12 737.89 593.5 732.56C595.26 739.65 592.19 755.31 595.5 760.26C599.47 758.68 598.12 756.62 598.06 752.5C597.97 746.17 598.03 739.83 598.02 733.5C598.01 729.71 598.91 727.53 596.5 724.82C592.51 725.56 592.02 728.33 590.34 731.82C587.45 737.81 584.14 743.56 581.5 749.67C578.58 746.32 574.65 737.23 572.63 732.84C570.42 728.05 570.64 724.46 564.5 725.18ZM739.94 726.5C738.71 725.14 740.75 726.17 739.25 725.13C737.98 724.24 734.98 724.77 733.5 724.76C730.41 724.76 717.75 723.82 715.7 725.13C713.98 726.24 716.36 725.06 714.91 726.5C716.37 727.82 714.03 726.78 715.72 727.76C717.87 729.01 722.85 727.99 725.38 728.5C725.42 735.5 725.41 742.5 725.37 749.5C725.34 753.14 724.64 757.21 726.5 760.22C730.5 758.63 729.15 755.63 729.15 751.5C729.14 743.84 729.02 736.16 729.2 728.5C733.17 727.71 737.28 729.03 739.94 726.5ZM768.5 724.77C766.86 726.39 768.29 723.68 767 725.64C766.06 727.06 766.72 734.45 766.71 736.5C766.63 746.71 765.63 760.18 779.6 760.56C794.96 760.98 794.06 748.92 794.09 737.5C794.1 735.15 794.85 727.42 793.83 725.66C792.66 723.65 794.04 726.52 792.5 724.78C790.89 726.36 792.26 723.74 790.99 725.65C790.01 727.12 790.71 730.78 790.7 732.5C790.65 741.05 793.4 757.17 780.5 757.1C768.1 757.04 770.29 741.98 770.34 733.5C770.36 731.53 771.21 727.34 770.04 725.66C768.76 723.81 770.11 726.3 768.5 724.77ZM825.97 724.94C825.97 736.61 825.97 748.28 825.97 759.95C833.32 760.37 841.96 761.39 848.3 756.82C857.79 749.99 857.62 733.27 847.27 727.24C841.03 723.6 832.87 724.68 825.97 724.94ZM888.5 724.8C887.56 725.16 887.57 724.49 886.72 725.08C885.23 726.13 886 730.86 885.99 732.5C885.94 738.83 885.98 745.17 885.97 751.5C885.96 755.01 885.37 757.62 887.5 760.15C890.79 758.33 889.71 755.18 889.68 751.5C889.63 745.63 890.92 728.94 888.5 724.8ZM936.55 727.45C953.58 726.88 956.38 754.9 939.5 757.01C919.2 759.55 918.09 728.07 936.55 727.45ZM829.65 756.5C829.65 747.17 829.65 737.83 829.65 728.5C834.58 727.54 840.96 727.11 845.39 730.07C853.31 735.36 853.86 748.79 845.84 754.36C841.26 757.54 834.86 757.14 829.65 756.5ZM519.5 729.98C521.55 735.82 523.6 741.66 525.66 747.5C521.27 747.5 516.89 747.5 512.5 747.5C514.83 741.66 517.17 735.82 519.5 729.98Z" fill="#ffffff" fill-rule="evenodd" stroke="#ffffff" stroke-width="0.25" stroke-linejoin="round"/>
<path d="M665.62 105.45C701.79 104.28 740.11 109.98 773.7 123.77C791.82 131.21 809.54 139.64 825.82 150.64C909.33 207.13 960.97 306.17 955.86 407.5C954.26 439.32 947.32 470.59 935.71 500.24C920.21 539.82 894.63 575.3 863.9 604.41C840.58 626.5 813.18 645.36 783.69 658.21C748.42 673.58 711.04 682.24 672.47 682.54C533.55 683.61 405.23 572.29 387.1 434.5C375.86 348.99 402.22 265.65 458.26 200.75C481.31 174.07 510.81 150.45 542.68 135.18C581.59 116.54 622.51 106.85 665.62 105.45ZM666.67 115.47C622.3 117.35 580.04 127.34 540.6 148.1C434.44 204 376.05 331.41 399.31 448.36C417.56 540.07 489.1 623.4 577.11 655.43C608.73 666.94 641.7 673.56 675.5 672.96C713.56 672.29 752.68 663.55 786.7 646.2C868.99 604.26 927.11 531.44 942.74 439.45C966.93 297.14 869.29 147.16 725.52 120.84C706.2 117.3 686.37 114.64 666.67 115.47ZM653.94 336.5C656.72 339.09 660.23 340.88 663.23 343.29C666.56 345.98 669.42 349.09 672.5 352.04C684.71 345.73 696.27 339.08 709.65 335.24C736.21 327.62 764.31 329.5 790.7 336.7C797.29 338.49 813.67 342.14 818.5 345.44C818.46 357.79 819.68 370.16 820.02 382.5C820.09 384.97 821.13 393.62 820.01 395.39C818.66 397.52 820.19 394.58 818.5 396.4C815.17 391.64 814.06 384.32 811.65 378.78C808.47 371.46 803.27 364.48 797.66 358.85C766.36 327.44 711.47 331.64 680.84 361.5C682.16 364.96 684.67 367.67 686.73 370.75C692.1 378.78 697.36 386.94 702.2 395.31C721.1 428.03 740.89 468.89 778.71 482.73C788.28 486.23 799.52 487 809.5 485.11C813.81 484.29 823.25 479.75 826.5 480.84C825.68 484.72 819.64 486.89 816.25 488.74C803.91 495.47 788.23 496.63 774.5 495.97C730.04 493.84 703.89 463.08 682.58 427.9C677.8 420.01 673.1 411.88 668.67 403.79C666.15 399.17 663.85 394.15 660.5 390.08C651.88 405.32 648.27 424.25 646.87 441.5C642.53 494.95 655.83 566.09 711.41 589.14C718.29 592 725.1 593.82 732.5 594.78C742.2 596.04 751.84 595.71 761.43 593.73C781.91 589.49 800.83 575.03 812.42 557.9C815.26 553.7 818.15 549.48 820.43 544.93C822.33 541.14 823.61 536.68 826.5 533.68C827.62 535.25 826.92 533.04 827.69 534.72C828.37 536.22 827.53 538.95 827.27 540.53C826.33 546.3 825.15 552.05 822.95 557.48C812.53 583.24 790.82 595.53 764.25 600.62C711.02 610.83 654.91 592.97 627.24 544.27C615.89 524.28 611.72 502.15 610.31 479.5C603.27 477.39 593.99 478.44 586.5 478.43C571.83 478.42 557.17 478.29 542.5 478.49C536.13 478.58 522.73 480.28 517.64 477.5C518.19 476.48 517.45 476.68 518.2 475.81C518.89 475.01 528.27 474.54 530.45 473.87C536.99 471.87 541.99 467.58 544.74 461.27C551.3 446.24 548.77 418.21 548.79 401.5C548.86 360.5 548.88 319.5 548.86 278.5C548.86 266.17 548.87 253.83 548.87 241.5C548.87 232.28 549.24 222.62 545.5 213.97C542.3 206.58 536.23 201.85 528.3 200.33C525.77 199.85 520.78 200.47 518.61 198.99C518.13 198.66 518.1 197.91 517.68 197.5C521.47 195.06 527.86 196.36 532.5 196.41C544.83 196.55 557.17 196.66 569.5 196.65C586.5 196.64 603.5 196.15 620.5 195.86C635.83 195.6 651.38 195.24 666.54 197.79C684.43 200.8 702.25 207.02 715.11 220.39C721.51 227.04 726.56 235.44 729.36 244.24C731.64 251.45 732.55 258.95 732.42 266.5C732.32 272.56 731.54 278.58 729.82 284.4C719.9 318.05 685.37 331.48 653.94 336.5ZM582.42 331.79C590.68 333.39 600.04 332.37 608.5 332.36C633.79 332.34 661.48 329.7 680.42 310.92C701.44 290.08 703.78 250.92 686.38 227.13C679.13 217.21 668.68 210.48 657.25 206.32C637.7 199.2 602.9 200.92 582.42 204.5C582.42 246.93 582.42 289.36 582.42 331.79ZM648.97 370.5C641.27 358.48 632.4 344.33 618.2 339.37C608.14 335.87 593.52 336.77 582.95 337.5C580.8 346.01 582.39 363.01 582.37 372.5C582.33 391.83 582.44 411.17 582.33 430.5C582.25 445.58 581.69 466.48 598.33 473.2C601.97 474.67 605.63 474.96 609.5 475.33C611.08 469.32 610.53 462.74 611.21 456.5C612.68 442.89 615.69 429.68 620.38 416.81C624.32 406.01 629.99 395.54 636.66 386.2C640.43 380.92 645.99 376.1 648.97 370.5ZM420.5 732.51C415.94 732.61 415.41 729.18 410.49 727.95C401.14 725.6 392.75 734.06 393.42 743.31C394.56 759.06 416.79 763.09 419.58 746.5C417.58 745.84 408.93 746.05 408.27 745.2C407.77 744.56 408.15 744.21 407.83 743.5C411.23 740.9 418.72 741.85 423.12 742.5C424.52 762.95 397.45 767.44 390.98 749.48C387.37 739.45 392.53 726.89 403.5 724.8C408.87 723.78 420.85 724.97 420.5 732.51ZM687.44 731.5C683.46 733.54 683.95 729.63 680.32 728.18C674.25 725.76 668.45 729.45 669.5 735.94C674.9 741.91 692.84 740.72 688.26 753.67C685.91 760.32 677.69 761.92 671.64 759.83C669.52 759.09 663.66 755.67 665.02 752.67C665.63 751.32 665.5 752.65 666.36 751.5C668.75 752.08 669.72 755.14 672.23 756.29C679.2 759.49 685.15 755.97 684.81 748.5C679.91 742.01 662.54 743.54 665.74 731.43C668.23 722 686.94 722.19 687.44 731.5ZM935.77 724.44C959.36 722.7 961.09 759.29 938.23 760.53C915 761.79 913.1 726.12 935.77 724.44ZM454.5 724.77C455.41 725.15 455.44 724.53 456.25 725.12C457.84 726.28 456.95 731.72 456.95 733.5C456.91 741.16 456.86 748.84 457.01 756.5C460.28 756.97 472.44 756.07 474.33 757.2C474.77 757.46 474.73 758.16 475.1 758.5C473.58 759.89 476.02 758.75 474.28 759.79C472.93 760.59 470.03 760.12 468.5 760.16C463.51 760.26 458.42 760.43 453.5 759.69C452.5 751.74 453.25 743.51 453.18 735.5C453.14 731.77 452.36 727.58 454.5 724.77ZM520.5 724.81C525.17 736.47 529.83 748.14 534.5 759.8C528.9 759.97 529.63 755.47 527.5 750.99C521.83 750.99 516.17 750.99 510.5 750.99C509.75 752.93 508.54 759.38 506.38 759.95C505.12 760.29 504.66 759.68 503.5 759.5C506.39 750.67 510.48 742.09 513.99 733.49C515.71 729.29 515.53 725.46 520.5 724.81ZM564.5 725.18C570.64 724.46 570.42 728.05 572.63 732.84C574.65 737.23 578.58 746.32 581.5 749.67C584.14 743.56 587.45 737.81 590.34 731.82C592.02 728.33 592.51 725.56 596.5 724.82C598.91 727.53 598.01 729.71 598.02 733.5C598.03 739.83 597.97 746.17 598.06 752.5C598.12 756.62 599.47 758.68 595.5 760.26C592.19 755.31 595.26 739.65 593.5 732.56C591.12 737.89 588.14 742.83 585.56 748.06C584.12 750.97 583.68 753.71 580.5 754.7C576.5 747.07 572.5 739.44 568.5 731.81C567.22 738.4 568.04 745.74 567.98 752.5C567.95 756.52 569.35 758.7 565.5 760.21C563.58 757.34 564.28 753.11 564.29 749.5C564.32 741.47 563.69 733.14 564.5 725.18ZM739.94 726.5C737.28 729.03 733.17 727.71 729.2 728.5C729.02 736.16 729.14 743.84 729.15 751.5C729.15 755.63 730.5 758.63 726.5 760.22C724.64 757.21 725.34 753.14 725.37 749.5C725.41 742.5 725.42 735.5 725.38 728.5C722.85 727.99 717.87 729.01 715.72 727.76C714.03 726.78 716.37 727.82 714.91 726.5C716.36 725.06 713.98 726.24 715.7 725.13C717.75 723.82 730.41 724.76 733.5 724.76C734.98 724.77 737.98 724.24 739.25 725.13C740.75 726.17 738.71 725.14 739.94 726.5ZM768.5 724.77C770.11 726.3 768.76 723.81 770.04 725.66C771.21 727.34 770.36 731.53 770.34 733.5C770.29 741.98 768.1 757.04 780.5 757.1C793.4 757.17 790.65 741.05 790.7 732.5C790.71 730.78 790.01 727.12 790.99 725.65C792.26 723.74 790.89 726.36 792.5 724.78C794.04 726.52 792.66 723.65 793.83 725.66C794.85 727.42 794.1 735.15 794.09 737.5C794.06 748.92 794.96 760.98 779.6 760.56C765.63 760.18 766.63 746.71 766.71 736.5C766.72 734.45 766.06 727.06 767 725.64C768.29 723.68 766.86 726.39 768.5 724.77ZM825.97 724.94C832.87 724.68 841.03 723.6 847.27 727.24C857.62 733.27 857.79 749.99 848.3 756.82C841.96 761.39 833.32 760.37 825.97 759.95C825.97 748.28 825.97 736.61 825.97 724.94ZM888.5 724.8C890.92 728.94 889.63 745.63 889.68 751.5C889.71 755.18 890.79 758.33 887.5 760.15C885.37 757.62 885.96 755.01 885.97 751.5C885.98 745.17 885.94 738.83 885.99 732.5C886 730.86 885.23 726.13 886.72 725.08C887.57 724.49 887.56 725.16 888.5 724.8ZM936.55 727.45C918.09 728.07 919.2 759.55 939.5 757.01C956.38 754.9 953.58 726.88 936.55 727.45ZM829.65 756.5C834.86 757.14 841.26 757.54 845.84 754.36C853.86 748.79 853.31 735.36 845.39 730.07C840.96 727.11 834.58 727.54 829.65 728.5C829.65 737.83 829.65 747.17 829.65 756.5ZM519.5 729.98C517.17 735.82 514.83 741.66 512.5 747.5C516.89 747.5 521.27 747.5 525.66 747.5C523.6 741.66 521.55 735.82 519.5 729.98Z" fill="#be7077" fill-rule="evenodd" stroke="#be7077" stroke-width="0.25" stroke-linejoin="round"/>
</svg>